<mxfile host="Electron" modified="2023-04-05T22:15:46.292Z" agent="Mozilla/5.0 (Windows NT 10.0; Win64; x64) AppleWebKit/537.36 (KHTML, like Gecko) draw.io/21.1.2 Chrome/106.0.5249.199 Electron/21.4.3 Safari/537.36" etag="ZM7IG3LfV3ANWy76_CXD" version="21.1.2" type="device">
  <diagram name="Page-1" id="2YBvvXClWsGukQMizWep">
    <mxGraphModel dx="980" dy="562" grid="1" gridSize="10" guides="1" tooltips="1" connect="1" arrows="1" fold="1" page="1" pageScale="1" pageWidth="850" pageHeight="1100" math="0" shadow="0">
      <root>
        <mxCell id="0" />
        <mxCell id="1" parent="0" />
        <mxCell id="E98mA0hf0uhJdHvam1qt-5" value="TuneTidy user" style="shape=umlActor;verticalLabelPosition=bottom;verticalAlign=top;html=1;outlineConnect=0;" parent="1" vertex="1">
          <mxGeometry x="160" y="30" width="30" height="60" as="geometry" />
        </mxCell>
        <mxCell id="E98mA0hf0uhJdHvam1qt-7" value="HomePage" style="html=1;whiteSpace=wrap;" parent="1" vertex="1">
          <mxGeometry x="260" y="35" width="110" height="50" as="geometry" />
        </mxCell>
        <mxCell id="E98mA0hf0uhJdHvam1qt-9" value="AlbumData" style="html=1;whiteSpace=wrap;" parent="1" vertex="1">
          <mxGeometry x="540" y="35" width="110" height="50" as="geometry" />
        </mxCell>
        <mxCell id="E98mA0hf0uhJdHvam1qt-12" value="" style="endArrow=none;dashed=1;html=1;rounded=0;" parent="1" edge="1">
          <mxGeometry width="50" height="50" relative="1" as="geometry">
            <mxPoint x="175" y="420" as="sourcePoint" />
            <mxPoint x="175" y="120" as="targetPoint" />
          </mxGeometry>
        </mxCell>
        <mxCell id="E98mA0hf0uhJdHvam1qt-13" value="" style="endArrow=none;dashed=1;html=1;rounded=0;entryX=0.5;entryY=1;entryDx=0;entryDy=0;" parent="1" target="E98mA0hf0uhJdHvam1qt-7" edge="1" source="4cCIE7STCx5JLXTlckev-36">
          <mxGeometry width="50" height="50" relative="1" as="geometry">
            <mxPoint x="315" y="440" as="sourcePoint" />
            <mxPoint x="314.76" y="120" as="targetPoint" />
          </mxGeometry>
        </mxCell>
        <mxCell id="E98mA0hf0uhJdHvam1qt-15" value="" style="endArrow=none;dashed=1;html=1;rounded=0;entryX=0.5;entryY=1;entryDx=0;entryDy=0;" parent="1" target="E98mA0hf0uhJdHvam1qt-9" edge="1" source="4cCIE7STCx5JLXTlckev-42">
          <mxGeometry width="50" height="50" relative="1" as="geometry">
            <mxPoint x="595" y="440" as="sourcePoint" />
            <mxPoint x="600" y="85" as="targetPoint" />
          </mxGeometry>
        </mxCell>
        <mxCell id="E98mA0hf0uhJdHvam1qt-17" value="" style="endArrow=classic;html=1;rounded=0;" parent="1" edge="1">
          <mxGeometry relative="1" as="geometry">
            <mxPoint x="180" y="130" as="sourcePoint" />
            <mxPoint x="310" y="130" as="targetPoint" />
          </mxGeometry>
        </mxCell>
        <mxCell id="E98mA0hf0uhJdHvam1qt-18" value="&lt;font style=&quot;font-size: 8px;&quot;&gt;Directed to home after signin&lt;br&gt;w/ data&lt;br&gt;&lt;/font&gt;" style="edgeLabel;resizable=0;html=1;align=center;verticalAlign=middle;fontSize=8;" parent="E98mA0hf0uhJdHvam1qt-17" connectable="0" vertex="1">
          <mxGeometry relative="1" as="geometry" />
        </mxCell>
        <mxCell id="E98mA0hf0uhJdHvam1qt-29" value="WidgetFactory" style="html=1;whiteSpace=wrap;" parent="1" vertex="1">
          <mxGeometry x="400" y="35" width="110" height="50" as="geometry" />
        </mxCell>
        <mxCell id="E98mA0hf0uhJdHvam1qt-30" value="" style="endArrow=none;dashed=1;html=1;rounded=0;entryX=0.5;entryY=1;entryDx=0;entryDy=0;" parent="1" target="E98mA0hf0uhJdHvam1qt-29" edge="1" source="4cCIE7STCx5JLXTlckev-38">
          <mxGeometry width="50" height="50" relative="1" as="geometry">
            <mxPoint x="455" y="440" as="sourcePoint" />
            <mxPoint x="460" y="85" as="targetPoint" />
          </mxGeometry>
        </mxCell>
        <mxCell id="4cCIE7STCx5JLXTlckev-1" value="" style="endArrow=classic;html=1;rounded=0;" edge="1" parent="1">
          <mxGeometry relative="1" as="geometry">
            <mxPoint x="320" y="150" as="sourcePoint" />
            <mxPoint x="450" y="150" as="targetPoint" />
          </mxGeometry>
        </mxCell>
        <mxCell id="4cCIE7STCx5JLXTlckev-2" value="&lt;font style=&quot;font-size: 8px;&quot;&gt;Calls WidgetFactory&lt;br&gt;&lt;/font&gt;" style="edgeLabel;resizable=0;html=1;align=center;verticalAlign=middle;fontSize=8;" connectable="0" vertex="1" parent="4cCIE7STCx5JLXTlckev-1">
          <mxGeometry relative="1" as="geometry" />
        </mxCell>
        <mxCell id="4cCIE7STCx5JLXTlckev-3" value="SongData" style="html=1;whiteSpace=wrap;" vertex="1" parent="1">
          <mxGeometry x="680" y="35" width="110" height="50" as="geometry" />
        </mxCell>
        <mxCell id="4cCIE7STCx5JLXTlckev-4" value="" style="endArrow=none;dashed=1;html=1;rounded=0;entryX=0.5;entryY=1;entryDx=0;entryDy=0;" edge="1" target="4cCIE7STCx5JLXTlckev-3" parent="1" source="4cCIE7STCx5JLXTlckev-45">
          <mxGeometry width="50" height="50" relative="1" as="geometry">
            <mxPoint x="735" y="440" as="sourcePoint" />
            <mxPoint x="740" y="85" as="targetPoint" />
          </mxGeometry>
        </mxCell>
        <mxCell id="4cCIE7STCx5JLXTlckev-5" value="ArtistData" style="html=1;whiteSpace=wrap;" vertex="1" parent="1">
          <mxGeometry x="820" y="35" width="110" height="50" as="geometry" />
        </mxCell>
        <mxCell id="4cCIE7STCx5JLXTlckev-6" value="" style="endArrow=none;dashed=1;html=1;rounded=0;entryX=0.5;entryY=1;entryDx=0;entryDy=0;" edge="1" target="4cCIE7STCx5JLXTlckev-5" parent="1" source="4cCIE7STCx5JLXTlckev-49">
          <mxGeometry width="50" height="50" relative="1" as="geometry">
            <mxPoint x="875" y="440" as="sourcePoint" />
            <mxPoint x="880" y="85" as="targetPoint" />
          </mxGeometry>
        </mxCell>
        <mxCell id="4cCIE7STCx5JLXTlckev-7" value="" style="endArrow=classic;html=1;rounded=0;" edge="1" parent="1">
          <mxGeometry relative="1" as="geometry">
            <mxPoint x="460" y="160" as="sourcePoint" />
            <mxPoint x="590" y="160" as="targetPoint" />
          </mxGeometry>
        </mxCell>
        <mxCell id="4cCIE7STCx5JLXTlckev-8" value="&lt;font style=&quot;font-size: 8px;&quot;&gt;Creates Album widget&lt;br&gt;&lt;/font&gt;" style="edgeLabel;resizable=0;html=1;align=center;verticalAlign=middle;fontSize=8;" connectable="0" vertex="1" parent="4cCIE7STCx5JLXTlckev-7">
          <mxGeometry relative="1" as="geometry" />
        </mxCell>
        <mxCell id="4cCIE7STCx5JLXTlckev-17" value="" style="endArrow=classic;html=1;rounded=0;dashed=1;" edge="1" parent="1">
          <mxGeometry relative="1" as="geometry">
            <mxPoint x="730" y="240" as="sourcePoint" />
            <mxPoint x="320" y="240" as="targetPoint" />
          </mxGeometry>
        </mxCell>
        <mxCell id="4cCIE7STCx5JLXTlckev-18" value="&lt;font style=&quot;font-size: 8px;&quot;&gt;Displays song widget&lt;br&gt;&lt;/font&gt;" style="edgeLabel;resizable=0;html=1;align=center;verticalAlign=middle;fontSize=8;" connectable="0" vertex="1" parent="4cCIE7STCx5JLXTlckev-17">
          <mxGeometry relative="1" as="geometry" />
        </mxCell>
        <mxCell id="4cCIE7STCx5JLXTlckev-19" value="" style="endArrow=classic;html=1;rounded=0;" edge="1" parent="1">
          <mxGeometry relative="1" as="geometry">
            <mxPoint x="180" y="280" as="sourcePoint" />
            <mxPoint x="310" y="280" as="targetPoint" />
          </mxGeometry>
        </mxCell>
        <mxCell id="4cCIE7STCx5JLXTlckev-20" value="&lt;font style=&quot;font-size: 8px;&quot;&gt;Select a new date range&lt;br&gt;&lt;/font&gt;" style="edgeLabel;resizable=0;html=1;align=center;verticalAlign=middle;fontSize=8;" connectable="0" vertex="1" parent="4cCIE7STCx5JLXTlckev-19">
          <mxGeometry relative="1" as="geometry" />
        </mxCell>
        <mxCell id="4cCIE7STCx5JLXTlckev-21" value="" style="endArrow=classic;html=1;rounded=0;" edge="1" parent="1">
          <mxGeometry relative="1" as="geometry">
            <mxPoint x="320" y="290" as="sourcePoint" />
            <mxPoint x="450" y="290" as="targetPoint" />
          </mxGeometry>
        </mxCell>
        <mxCell id="4cCIE7STCx5JLXTlckev-22" value="&lt;font style=&quot;font-size: 8px;&quot;&gt;Calls WidgetFactory again&lt;br&gt;&lt;/font&gt;" style="edgeLabel;resizable=0;html=1;align=center;verticalAlign=middle;fontSize=8;" connectable="0" vertex="1" parent="4cCIE7STCx5JLXTlckev-21">
          <mxGeometry relative="1" as="geometry" />
        </mxCell>
        <mxCell id="4cCIE7STCx5JLXTlckev-23" value="" style="endArrow=classic;html=1;rounded=0;" edge="1" parent="1">
          <mxGeometry relative="1" as="geometry">
            <mxPoint x="460" y="300" as="sourcePoint" />
            <mxPoint x="590" y="300" as="targetPoint" />
          </mxGeometry>
        </mxCell>
        <mxCell id="4cCIE7STCx5JLXTlckev-24" value="&lt;font style=&quot;font-size: 8px;&quot;&gt;Recreates Album widget&lt;br&gt;&lt;/font&gt;" style="edgeLabel;resizable=0;html=1;align=center;verticalAlign=middle;fontSize=8;" connectable="0" vertex="1" parent="4cCIE7STCx5JLXTlckev-23">
          <mxGeometry relative="1" as="geometry" />
        </mxCell>
        <mxCell id="4cCIE7STCx5JLXTlckev-32" value="" style="endArrow=classic;html=1;rounded=0;dashed=1;" edge="1" parent="1">
          <mxGeometry relative="1" as="geometry">
            <mxPoint x="730" y="380" as="sourcePoint" />
            <mxPoint x="320" y="380" as="targetPoint" />
          </mxGeometry>
        </mxCell>
        <mxCell id="4cCIE7STCx5JLXTlckev-33" value="&lt;font style=&quot;font-size: 8px;&quot;&gt;Redisplays song widget&lt;br&gt;&lt;/font&gt;" style="edgeLabel;resizable=0;html=1;align=center;verticalAlign=middle;fontSize=8;" connectable="0" vertex="1" parent="4cCIE7STCx5JLXTlckev-32">
          <mxGeometry relative="1" as="geometry" />
        </mxCell>
        <mxCell id="4cCIE7STCx5JLXTlckev-34" value="" style="endArrow=classic;html=1;rounded=0;dashed=1;" edge="1" parent="1">
          <mxGeometry relative="1" as="geometry">
            <mxPoint x="870" y="400" as="sourcePoint" />
            <mxPoint x="320" y="400" as="targetPoint" />
          </mxGeometry>
        </mxCell>
        <mxCell id="4cCIE7STCx5JLXTlckev-35" value="&lt;font style=&quot;font-size: 8px;&quot;&gt;Redisplays artist widget&lt;br&gt;&lt;/font&gt;" style="edgeLabel;resizable=0;html=1;align=center;verticalAlign=middle;fontSize=8;" connectable="0" vertex="1" parent="4cCIE7STCx5JLXTlckev-34">
          <mxGeometry relative="1" as="geometry" />
        </mxCell>
        <mxCell id="4cCIE7STCx5JLXTlckev-36" value="" style="html=1;points=[];perimeter=orthogonalPerimeter;outlineConnect=0;targetShapes=umlLifeline;portConstraint=eastwest;newEdgeStyle={&quot;edgeStyle&quot;:&quot;elbowEdgeStyle&quot;,&quot;elbow&quot;:&quot;vertical&quot;,&quot;curved&quot;:0,&quot;rounded&quot;:0};" vertex="1" parent="1">
          <mxGeometry x="310" y="120" width="10" height="300" as="geometry" />
        </mxCell>
        <mxCell id="4cCIE7STCx5JLXTlckev-39" value="" style="endArrow=none;dashed=1;html=1;rounded=0;entryX=0.5;entryY=1;entryDx=0;entryDy=0;" edge="1" parent="1" source="4cCIE7STCx5JLXTlckev-40" target="4cCIE7STCx5JLXTlckev-38">
          <mxGeometry width="50" height="50" relative="1" as="geometry">
            <mxPoint x="455" y="440" as="sourcePoint" />
            <mxPoint x="455" y="85" as="targetPoint" />
          </mxGeometry>
        </mxCell>
        <mxCell id="4cCIE7STCx5JLXTlckev-38" value="" style="html=1;points=[];perimeter=orthogonalPerimeter;outlineConnect=0;targetShapes=umlLifeline;portConstraint=eastwest;newEdgeStyle={&quot;edgeStyle&quot;:&quot;elbowEdgeStyle&quot;,&quot;elbow&quot;:&quot;vertical&quot;,&quot;curved&quot;:0,&quot;rounded&quot;:0};" vertex="1" parent="1">
          <mxGeometry x="450" y="130" width="10" height="80" as="geometry" />
        </mxCell>
        <mxCell id="4cCIE7STCx5JLXTlckev-40" value="" style="html=1;points=[];perimeter=orthogonalPerimeter;outlineConnect=0;targetShapes=umlLifeline;portConstraint=eastwest;newEdgeStyle={&quot;edgeStyle&quot;:&quot;elbowEdgeStyle&quot;,&quot;elbow&quot;:&quot;vertical&quot;,&quot;curved&quot;:0,&quot;rounded&quot;:0};" vertex="1" parent="1">
          <mxGeometry x="450" y="280" width="10" height="70" as="geometry" />
        </mxCell>
        <mxCell id="4cCIE7STCx5JLXTlckev-30" value="" style="endArrow=classic;html=1;rounded=0;dashed=1;" edge="1" parent="1">
          <mxGeometry relative="1" as="geometry">
            <mxPoint x="590" y="360" as="sourcePoint" />
            <mxPoint x="320" y="360" as="targetPoint" />
          </mxGeometry>
        </mxCell>
        <mxCell id="4cCIE7STCx5JLXTlckev-31" value="&lt;font style=&quot;font-size: 8px;&quot;&gt;Redisplays album widget&lt;br&gt;&lt;/font&gt;" style="edgeLabel;resizable=0;html=1;align=center;verticalAlign=middle;fontSize=8;" connectable="0" vertex="1" parent="4cCIE7STCx5JLXTlckev-30">
          <mxGeometry relative="1" as="geometry" />
        </mxCell>
        <mxCell id="4cCIE7STCx5JLXTlckev-15" value="" style="endArrow=classic;html=1;rounded=0;dashed=1;" edge="1" parent="1">
          <mxGeometry relative="1" as="geometry">
            <mxPoint x="590" y="220" as="sourcePoint" />
            <mxPoint x="320" y="220" as="targetPoint" />
          </mxGeometry>
        </mxCell>
        <mxCell id="4cCIE7STCx5JLXTlckev-16" value="&lt;font style=&quot;font-size: 8px;&quot;&gt;Displays album widget&lt;br&gt;&lt;/font&gt;" style="edgeLabel;resizable=0;html=1;align=center;verticalAlign=middle;fontSize=8;" connectable="0" vertex="1" parent="4cCIE7STCx5JLXTlckev-15">
          <mxGeometry relative="1" as="geometry" />
        </mxCell>
        <mxCell id="4cCIE7STCx5JLXTlckev-43" value="" style="endArrow=none;dashed=1;html=1;rounded=0;entryX=0.5;entryY=1;entryDx=0;entryDy=0;" edge="1" parent="1" source="4cCIE7STCx5JLXTlckev-44" target="4cCIE7STCx5JLXTlckev-42">
          <mxGeometry width="50" height="50" relative="1" as="geometry">
            <mxPoint x="595" y="440" as="sourcePoint" />
            <mxPoint x="595" y="85" as="targetPoint" />
          </mxGeometry>
        </mxCell>
        <mxCell id="4cCIE7STCx5JLXTlckev-42" value="" style="html=1;points=[];perimeter=orthogonalPerimeter;outlineConnect=0;targetShapes=umlLifeline;portConstraint=eastwest;newEdgeStyle={&quot;edgeStyle&quot;:&quot;elbowEdgeStyle&quot;,&quot;elbow&quot;:&quot;vertical&quot;,&quot;curved&quot;:0,&quot;rounded&quot;:0};" vertex="1" parent="1">
          <mxGeometry x="590" y="150" width="10" height="80" as="geometry" />
        </mxCell>
        <mxCell id="4cCIE7STCx5JLXTlckev-46" value="" style="endArrow=none;dashed=1;html=1;rounded=0;entryX=0.5;entryY=1;entryDx=0;entryDy=0;" edge="1" parent="1" source="4cCIE7STCx5JLXTlckev-47" target="4cCIE7STCx5JLXTlckev-45">
          <mxGeometry width="50" height="50" relative="1" as="geometry">
            <mxPoint x="735" y="440" as="sourcePoint" />
            <mxPoint x="735" y="85" as="targetPoint" />
          </mxGeometry>
        </mxCell>
        <mxCell id="4cCIE7STCx5JLXTlckev-45" value="" style="html=1;points=[];perimeter=orthogonalPerimeter;outlineConnect=0;targetShapes=umlLifeline;portConstraint=eastwest;newEdgeStyle={&quot;edgeStyle&quot;:&quot;elbowEdgeStyle&quot;,&quot;elbow&quot;:&quot;vertical&quot;,&quot;curved&quot;:0,&quot;rounded&quot;:0};" vertex="1" parent="1">
          <mxGeometry x="730" y="170" width="10" height="80" as="geometry" />
        </mxCell>
        <mxCell id="4cCIE7STCx5JLXTlckev-47" value="" style="html=1;points=[];perimeter=orthogonalPerimeter;outlineConnect=0;targetShapes=umlLifeline;portConstraint=eastwest;newEdgeStyle={&quot;edgeStyle&quot;:&quot;elbowEdgeStyle&quot;,&quot;elbow&quot;:&quot;vertical&quot;,&quot;curved&quot;:0,&quot;rounded&quot;:0};" vertex="1" parent="1">
          <mxGeometry x="730" y="310" width="10" height="80" as="geometry" />
        </mxCell>
        <mxCell id="4cCIE7STCx5JLXTlckev-50" value="" style="endArrow=none;dashed=1;html=1;rounded=0;entryX=0.5;entryY=1;entryDx=0;entryDy=0;" edge="1" parent="1" source="4cCIE7STCx5JLXTlckev-51" target="4cCIE7STCx5JLXTlckev-49">
          <mxGeometry width="50" height="50" relative="1" as="geometry">
            <mxPoint x="875" y="440" as="sourcePoint" />
            <mxPoint x="875" y="85" as="targetPoint" />
          </mxGeometry>
        </mxCell>
        <mxCell id="4cCIE7STCx5JLXTlckev-49" value="" style="html=1;points=[];perimeter=orthogonalPerimeter;outlineConnect=0;targetShapes=umlLifeline;portConstraint=eastwest;newEdgeStyle={&quot;edgeStyle&quot;:&quot;elbowEdgeStyle&quot;,&quot;elbow&quot;:&quot;vertical&quot;,&quot;curved&quot;:0,&quot;rounded&quot;:0};" vertex="1" parent="1">
          <mxGeometry x="870" y="190" width="10" height="80" as="geometry" />
        </mxCell>
        <mxCell id="4cCIE7STCx5JLXTlckev-51" value="" style="html=1;points=[];perimeter=orthogonalPerimeter;outlineConnect=0;targetShapes=umlLifeline;portConstraint=eastwest;newEdgeStyle={&quot;edgeStyle&quot;:&quot;elbowEdgeStyle&quot;,&quot;elbow&quot;:&quot;vertical&quot;,&quot;curved&quot;:0,&quot;rounded&quot;:0};" vertex="1" parent="1">
          <mxGeometry x="870" y="330" width="10" height="80" as="geometry" />
        </mxCell>
        <mxCell id="4cCIE7STCx5JLXTlckev-9" value="" style="endArrow=classic;html=1;rounded=0;" edge="1" parent="1">
          <mxGeometry relative="1" as="geometry">
            <mxPoint x="460" y="180" as="sourcePoint" />
            <mxPoint x="730" y="180" as="targetPoint" />
          </mxGeometry>
        </mxCell>
        <mxCell id="4cCIE7STCx5JLXTlckev-10" value="&lt;font style=&quot;font-size: 8px;&quot;&gt;Creates Song widget&lt;br&gt;&lt;/font&gt;" style="edgeLabel;resizable=0;html=1;align=center;verticalAlign=middle;fontSize=8;" connectable="0" vertex="1" parent="4cCIE7STCx5JLXTlckev-9">
          <mxGeometry relative="1" as="geometry" />
        </mxCell>
        <mxCell id="4cCIE7STCx5JLXTlckev-13" value="" style="endArrow=classic;html=1;rounded=0;dashed=1;" edge="1" parent="1">
          <mxGeometry relative="1" as="geometry">
            <mxPoint x="870" y="260" as="sourcePoint" />
            <mxPoint x="320" y="260" as="targetPoint" />
          </mxGeometry>
        </mxCell>
        <mxCell id="4cCIE7STCx5JLXTlckev-14" value="&lt;font style=&quot;font-size: 8px;&quot;&gt;Displays artist widget&lt;br&gt;&lt;/font&gt;" style="edgeLabel;resizable=0;html=1;align=center;verticalAlign=middle;fontSize=8;" connectable="0" vertex="1" parent="4cCIE7STCx5JLXTlckev-13">
          <mxGeometry relative="1" as="geometry" />
        </mxCell>
        <mxCell id="4cCIE7STCx5JLXTlckev-44" value="" style="html=1;points=[];perimeter=orthogonalPerimeter;outlineConnect=0;targetShapes=umlLifeline;portConstraint=eastwest;newEdgeStyle={&quot;edgeStyle&quot;:&quot;elbowEdgeStyle&quot;,&quot;elbow&quot;:&quot;vertical&quot;,&quot;curved&quot;:0,&quot;rounded&quot;:0};" vertex="1" parent="1">
          <mxGeometry x="590" y="290" width="10" height="80" as="geometry" />
        </mxCell>
        <mxCell id="4cCIE7STCx5JLXTlckev-26" value="" style="endArrow=classic;html=1;rounded=0;" edge="1" parent="1">
          <mxGeometry relative="1" as="geometry">
            <mxPoint x="460" y="320" as="sourcePoint" />
            <mxPoint x="730" y="320" as="targetPoint" />
          </mxGeometry>
        </mxCell>
        <mxCell id="4cCIE7STCx5JLXTlckev-27" value="&lt;font style=&quot;font-size: 8px;&quot;&gt;Recreates Song widget&lt;br&gt;&lt;/font&gt;" style="edgeLabel;resizable=0;html=1;align=center;verticalAlign=middle;fontSize=8;" connectable="0" vertex="1" parent="4cCIE7STCx5JLXTlckev-26">
          <mxGeometry relative="1" as="geometry" />
        </mxCell>
        <mxCell id="4cCIE7STCx5JLXTlckev-28" value="" style="endArrow=classic;html=1;rounded=0;" edge="1" parent="1">
          <mxGeometry relative="1" as="geometry">
            <mxPoint x="460" y="340" as="sourcePoint" />
            <mxPoint x="870" y="340" as="targetPoint" />
          </mxGeometry>
        </mxCell>
        <mxCell id="4cCIE7STCx5JLXTlckev-29" value="&lt;font style=&quot;font-size: 8px;&quot;&gt;Recreates Artist widget&lt;br&gt;&lt;/font&gt;" style="edgeLabel;resizable=0;html=1;align=center;verticalAlign=middle;fontSize=8;" connectable="0" vertex="1" parent="4cCIE7STCx5JLXTlckev-28">
          <mxGeometry relative="1" as="geometry" />
        </mxCell>
        <mxCell id="4cCIE7STCx5JLXTlckev-11" value="" style="endArrow=classic;html=1;rounded=0;" edge="1" parent="1">
          <mxGeometry relative="1" as="geometry">
            <mxPoint x="460" y="200" as="sourcePoint" />
            <mxPoint x="870" y="200" as="targetPoint" />
          </mxGeometry>
        </mxCell>
        <mxCell id="4cCIE7STCx5JLXTlckev-12" value="&lt;font style=&quot;font-size: 8px;&quot;&gt;Creates Artist widget&lt;br&gt;&lt;/font&gt;" style="edgeLabel;resizable=0;html=1;align=center;verticalAlign=middle;fontSize=8;" connectable="0" vertex="1" parent="4cCIE7STCx5JLXTlckev-11">
          <mxGeometry relative="1" as="geometry" />
        </mxCell>
      </root>
    </mxGraphModel>
  </diagram>
</mxfile>
